<svg xmlns="http://www.w3.org/2000/svg" viewBox="0 0 105.03 102.46"><defs><style>.cls-1{fill:#fff;}.cls-2{fill:#dca158;}.cls-3{fill:#e94e1b;}.cls-4{fill:#8c4b22;}</style></defs><g id="Livello_2" data-name="Livello 2"><g id="Layer_1" data-name="Layer 1"><path class="cls-1" d="M71.75,80q4.06-12.81,8.14-25.61c2-5.81,3.74-11.73,5.59-17.59.85-2.95-.83-4.2-1.58-4.6-5-2.66-8.92,4.85-10.83,8.28a92.68,92.68,0,0,0-9.61,25.32A89,89,0,0,0,61.78,77c-.23,2.68-1,6.76,1.54,8.66a4.24,4.24,0,0,0,.78.44l.23.09a4.28,4.28,0,0,0,2.65,0,5.42,5.42,0,0,0,2.27-1.35A11.48,11.48,0,0,0,71.75,80Z"/><path class="cls-2" d="M70.78,79.68c.72-2.25,1.4-4.43,2.08-6.57,2.06-6.49,4-12.51,6-18.65,1.82-5.73,3.68-11.55,5.7-18,.52-1.83-.11-2.9-1.09-3.42a3.81,3.81,0,0,0-3.47.09l-.34.22a13.77,13.77,0,0,0-3.5,4.08l0,.06-.17.26a7.59,7.59,0,0,1,1.27-.57,7,7,0,0,1,.89-.27,2.09,2.09,0,0,1,1,0,.79.79,0,0,1,.61.65v0c0,.47-.51.77-1,1L76.06,39.7l-1.73.74c-.7,1.2-1.37,2.41-2,3.65h0c-.13.24-.25.48-.37.73a7.17,7.17,0,0,1,1.5-.73,7.93,7.93,0,0,1,1.36-.33,2.24,2.24,0,0,1,1.38.16,1,1,0,0,1,.5.65h0a.76.76,0,0,1-.07.55c-.19.36-.67.47-1.09.56a12.76,12.76,0,0,0-2.76.91A13.21,13.21,0,0,0,70.44,48h0q-1.23,2.67-2.26,5.42c-.13.33-.25.67-.37,1a11.27,11.27,0,0,1,1.66-1.25,11.12,11.12,0,0,1,2.74-1.25,3.05,3.05,0,0,1,1.49-.15,1.36,1.36,0,0,1,1,.75.81.81,0,0,1,.07.22,1.33,1.33,0,0,1-.57,1.18,4.11,4.11,0,0,1-1.24.57,26.3,26.3,0,0,0-4.05,1.83c-.75.42-1.48.88-2.18,1.37-.62,1.93-1.18,3.89-1.66,5.86-.05.17-.09.34-.13.51l0,0a15,15,0,0,1,1.29-.92A16.1,16.1,0,0,1,69,61.67c.6-.23,1.36-.4,1.81,0A.75.75,0,0,1,71,62a1.32,1.32,0,0,1-.31,1.36,4,4,0,0,1-1.58.88,16.56,16.56,0,0,0-4.93,3.09c-.37,1.85-.69,3.73-.94,5.61,0,.27-.07.53-.1.8a8.43,8.43,0,0,1,1-1,7.69,7.69,0,0,1,2.91-1.53,2.55,2.55,0,0,1,1.06-.12,1.09,1.09,0,0,1,.84.62.14.14,0,0,1,0,.06,1.16,1.16,0,0,1-.37,1.1,4.07,4.07,0,0,1-1.11.64,13.32,13.32,0,0,0-3.44,2.36,13.92,13.92,0,0,0-1.32,1.45c-.09,1-.15,2-.2,3-.08,1.68,0,3.63,1.36,4.64a2.5,2.5,0,0,0,.55.31,3.25,3.25,0,0,0,2.2.06,4.36,4.36,0,0,0,1.84-1.09A10.77,10.77,0,0,0,70.78,79.68Z"/><path class="cls-1" d="M46.62,77.58,36.36,51.27c-2.21-6.07-4.7-12.05-7.06-18.07-1.26-3-3.45-2.88-4.33-2.71-5.85,1.13-4.09,9.86-3.38,13.92a97.5,97.5,0,0,0,8.88,27.05,93.24,93.24,0,0,0,6.06,10.3c1.59,2.34,3.66,6.18,7,6a3.84,3.84,0,0,0,.93-.15l.24-.08a4.55,4.55,0,0,0,2.17-1.74,5.63,5.63,0,0,0,1-2.61A12.05,12.05,0,0,0,46.62,77.58Z"/><path class="cls-2" d="M45.63,78c-.91-2.31-1.79-4.55-2.64-6.74-2.61-6.67-5-12.86-7.47-19.18-2.29-5.88-4.62-11.87-7.2-18.43-.78-1.84-2-2.31-3.15-2.08a4,4,0,0,0-2.78,2.37c-.05.13-.09.27-.13.4A14.31,14.31,0,0,0,22.1,40s0,0,0,.07,0,.21,0,.32a7.94,7.94,0,0,1,.66-1.3,8.87,8.87,0,0,1,.55-.81,2.19,2.19,0,0,1,.75-.67.83.83,0,0,1,.93.13l0,0c.32.38.11,1-.13,1.42l-1.41,2.66-.92,1.74c.22,1.45.48,2.88.77,4.31h0c.05.28.11.56.17.84a7.77,7.77,0,0,1,1.65-2.76,2.26,2.26,0,0,1,1.23-.78,1.1,1.1,0,0,1,.83.2h0a.74.74,0,0,1,.31.49A1.6,1.6,0,0,1,27.06,47,13.93,13.93,0,0,0,25.4,49.6a14.25,14.25,0,0,0-1,2.69h0q.77,3,1.73,5.93l.36,1.06A12,12,0,0,1,27,57.16a11.55,11.55,0,0,1,1.42-2.83,3.13,3.13,0,0,1,1.12-1.11,1.41,1.41,0,0,1,1.28,0,.9.9,0,0,1,.2.14,1.39,1.39,0,0,1,.32,1.34A4.57,4.57,0,0,1,30.73,56a27,27,0,0,0-2.1,4.16c-.33.84-.63,1.7-.88,2.56.77,2,1.61,4,2.52,5.89.07.17.15.34.23.5v0c.13-.55.27-1.08.45-1.61a16.26,16.26,0,0,1,1.34-3c.33-.59.84-1.23,1.5-1.16a.9.9,0,0,1,.34.1,1.42,1.42,0,0,1,.65,1.32,4.28,4.28,0,0,1-.71,1.76,17.79,17.79,0,0,0-1.55,3.78,17.14,17.14,0,0,0-.44,2q1.38,2.64,2.94,5.21l.44.72a9.94,9.94,0,0,1,.17-1.54A8.19,8.19,0,0,1,37,73.46a2.55,2.55,0,0,1,.8-.8,1.1,1.1,0,0,1,1.08,0,.09.09,0,0,1,.06,0,1.21,1.21,0,0,1,.42,1.14A4.4,4.4,0,0,1,38.89,75a13.58,13.58,0,0,0-1.26,4.2,14.37,14.37,0,0,0-.12,2.07c.58.86,1.18,1.7,1.8,2.54,1,1.42,2.4,3,4.16,2.9a2.93,2.93,0,0,0,.67-.11A3.43,3.43,0,0,0,46,85.23a4.52,4.52,0,0,0,.78-2.11A11.13,11.13,0,0,0,45.63,78Z"/><path class="cls-1" d="M52.9,72.64q-3.21-15.86-6.41-31.72c-1.3-7.29-2.93-14.54-4.41-21.79-.84-3.6-3.33-3.93-4.36-3.91-6.83.12-6.55,10.32-6.55,15.05a111.72,111.72,0,0,0,4.7,32.28,106.27,106.27,0,0,0,4.81,12.82c1.33,3,2.92,7.7,6.69,8.21a4.25,4.25,0,0,0,1.07,0l.3,0A5.14,5.14,0,0,0,51.53,82a6.44,6.44,0,0,0,1.6-2.75A13.89,13.89,0,0,0,52.9,72.64Z"/><path class="cls-2" d="M51.7,72.88c-.57-2.78-1.12-5.48-1.65-8.13-1.63-8-3.13-15.5-4.66-23.11-1.43-7.1-2.88-14.32-4.5-22.23-.52-2.23-1.81-3-3.14-3a4.55,4.55,0,0,0-3.61,2.13,3.55,3.55,0,0,0-.23.43,16.45,16.45,0,0,0-1.29,6.35v.07c0,.13,0,.25,0,.38a8.73,8.73,0,0,1,1-1.35,8.4,8.4,0,0,1,.78-.8,2.46,2.46,0,0,1,1-.61,1,1,0,0,1,1,.33s0,0,0,0c.29.49-.07,1.11-.43,1.57l-2.11,2.73L32.47,29.5q0,2.51,0,5h0c0,.33,0,.66,0,1a8.24,8.24,0,0,1,1.16-1.64,7.52,7.52,0,0,1,1.24-1.15,2.58,2.58,0,0,1,1.55-.64,1.27,1.27,0,0,1,.9.38h0a.9.9,0,0,1,.26.62c0,.5-.44.89-.82,1.23a15.31,15.31,0,0,0-2.38,2.58,16.1,16.1,0,0,0-1.66,2.84h0q.28,3.54.8,7c.06.43.13.85.2,1.28a12.74,12.74,0,0,1,1-2.3A13.38,13.38,0,0,1,37,42.81a3.59,3.59,0,0,1,1.48-1,1.61,1.61,0,0,1,1.45.21,1.34,1.34,0,0,1,.21.2,1.61,1.61,0,0,1,.09,1.58,5.22,5.22,0,0,1-1,1.33A30.11,30.11,0,0,0,36,49.39a28.81,28.81,0,0,0-1.5,2.72c.47,2.4,1,4.79,1.68,7.15,0,.2.1.4.16.61a0,0,0,0,0,0,0c.25-.59.52-1.17.82-1.73A19.4,19.4,0,0,1,39.3,55c.5-.6,1.2-1.22,1.93-1a1,1,0,0,1,.37.19,1.63,1.63,0,0,1,.47,1.61,5,5,0,0,1-1.15,1.85,20.06,20.06,0,0,0-2.49,3.95,19,19,0,0,0-.9,2.19c.7,2.17,1.47,4.33,2.3,6.46.12.3.23.6.36.9a10,10,0,0,1,.49-1.7,9.61,9.61,0,0,1,2.17-3.31,3,3,0,0,1,1-.74,1.3,1.3,0,0,1,1.24.15l.06.06a1.4,1.4,0,0,1,.25,1.37,4.87,4.87,0,0,1-.79,1.33,15.74,15.74,0,0,0-2.24,4.49,15.19,15.19,0,0,0-.54,2.31c.49,1.08,1,2.16,1.53,3.22.89,1.82,2.13,3.82,4.13,4.09a2.84,2.84,0,0,0,.77,0,4,4,0,0,0,2.35-1.23A5.14,5.14,0,0,0,52,78.93,12.81,12.81,0,0,0,51.7,72.88Z"/><path class="cls-1" d="M68.39,74.94q2.14-16,4.3-32.08c1.15-7.31,2-14.69,3-22C76,17.15,73.78,16,72.8,15.71c-6.5-2.12-9.57,7.61-11.11,12.08a111.59,111.59,0,0,0-6.1,32.05,106.05,106.05,0,0,0,.35,13.69c.29,3.23.25,8.23,3.64,9.94a4.43,4.43,0,0,0,1,.37l.28,0A5.13,5.13,0,0,0,64,83.35a6.64,6.64,0,0,0,2.41-2.08A13.89,13.89,0,0,0,68.39,74.94Z"/><path class="cls-2" d="M67.17,74.78c.38-2.82.74-5.55,1.09-8.23,1.09-8.13,2.12-15.67,3.15-23.37,1-7.17,2-14.47,3-22.48.24-2.27-.73-3.42-2-3.83a4.63,4.63,0,0,0-4.11.83c-.12.11-.24.22-.35.34a16.37,16.37,0,0,0-3.29,5.57l0,.07L64.5,24a10.22,10.22,0,0,1,1.38-1c.33-.18.66-.35,1-.5A2.55,2.55,0,0,1,68,22.33a1,1,0,0,1,.86.65v0c.11.55-.44,1-.92,1.34l-2.9,1.89-1.89,1.24c-.58,1.57-1.11,3.15-1.61,4.75h0c-.1.31-.19.62-.28.94A8.22,8.22,0,0,1,62.91,32a7.84,7.84,0,0,1,1.54-.68,2.6,2.6,0,0,1,1.67-.1,1.25,1.25,0,0,1,.73.66h0a.89.89,0,0,1,.05.66c-.16.48-.71.71-1.18.9a15.58,15.58,0,0,0-3.09,1.66,16.44,16.44,0,0,0-2.49,2.14h0c-.6,2.29-1.11,4.59-1.55,6.9-.08.43-.16.85-.23,1.27a14.1,14.1,0,0,1,1.7-1.84,13.39,13.39,0,0,1,3-2.05,3.74,3.74,0,0,1,1.73-.49,1.63,1.63,0,0,1,1.31.68,1.49,1.49,0,0,1,.13.25,1.63,1.63,0,0,1-.43,1.53,5.24,5.24,0,0,1-1.35.93,31.86,31.86,0,0,0-4.42,3c-.8.66-1.57,1.35-2.31,2.08q-.49,3.63-.74,7.31c0,.21,0,.41,0,.63,0,0,0,0,0,0,.43-.48.87-.93,1.34-1.36a19.2,19.2,0,0,1,3-2.29c.66-.41,1.53-.77,2.16-.33a1,1,0,0,1,.28.3,1.6,1.6,0,0,1-.09,1.68A4.84,4.84,0,0,1,62,56.81a20.1,20.1,0,0,0-3.64,2.92,18.63,18.63,0,0,0-1.56,1.77c-.06,2.28,0,4.57.06,6.86,0,.33,0,.65,0,1a10.32,10.32,0,0,1,1-1.45A9.42,9.42,0,0,1,61,65.47a2.77,2.77,0,0,1,1.24-.36,1.28,1.28,0,0,1,1.12.55.25.25,0,0,1,0,.07,1.41,1.41,0,0,1-.21,1.38,5.17,5.17,0,0,1-1.18,1,15.73,15.73,0,0,0-3.59,3.51,15.3,15.3,0,0,0-1.26,2c.11,1.19.24,2.37.39,3.55.25,2,.77,4.3,2.57,5.21a2.77,2.77,0,0,0,.73.26,3.9,3.9,0,0,0,2.62-.39,5.27,5.27,0,0,0,1.95-1.68A13,13,0,0,0,67.17,74.78Z"/><path class="cls-1" d="M61.25,74.14q-.42-18.4-.85-36.8c0-8.42-.38-16.86-.6-25.27C59.58,7.86,56.86,7,55.71,6.82,48,5.59,46.31,17.07,45.37,22.36A126.73,126.73,0,0,0,44.2,59.45,120.23,120.23,0,0,0,47,74.76c.9,3.58,1.74,9.21,5.86,10.53a5.2,5.2,0,0,0,1.2.23h.33a5.92,5.92,0,0,0,3.44-1.17,7.34,7.34,0,0,0,2.34-2.76C61.37,79.18,61.31,76.5,61.25,74.14Z"/><path class="cls-2" d="M59.86,74.17c-.08-3.23-.16-6.36-.23-9.43-.22-9.32-.41-18-.61-26.81-.18-8.23-.37-16.6-.61-25.79-.13-2.6-1.42-3.72-2.92-4A5.23,5.23,0,0,0,51,9.85a4.59,4.59,0,0,0-.33.44A18.43,18.43,0,0,0,48,17.14a.26.26,0,0,0,0,.08l-.09.42a10.05,10.05,0,0,1,1.38-1.31,12.3,12.3,0,0,1,1-.74,2.94,2.94,0,0,1,1.22-.49,1.09,1.09,0,0,1,1.08.58s0,0,0,.05c.22.6-.31,1.23-.8,1.67L48.89,20,47,21.76q-.55,2.79-1,5.62h0c-.06.37-.11.74-.16,1.11a9.87,9.87,0,0,1,1.62-1.61,9.72,9.72,0,0,1,1.62-1,2.92,2.92,0,0,1,1.86-.4,1.4,1.4,0,0,1,.93.61h0a1,1,0,0,1,.16.74c-.09.56-.66.91-1.16,1.21a17.38,17.38,0,0,0-3.17,2.42,18.24,18.24,0,0,0-2.43,2.84h0c-.26,2.68-.43,5.35-.51,8q0,.73,0,1.47a14.43,14.43,0,0,1,1.59-2.37,15.26,15.26,0,0,1,3-2.84,4.1,4.1,0,0,1,1.86-.85,1.84,1.84,0,0,1,1.59.53,1.51,1.51,0,0,1,.18.26,1.81,1.81,0,0,1-.21,1.79,5.92,5.92,0,0,1-1.35,1.29A35.59,35.59,0,0,0,47,44.74c-.78.88-1.52,1.8-2.22,2.75q.07,4.17.46,8.34l.06.71,0,0q.59-.91,1.26-1.77a22.47,22.47,0,0,1,3-3.11c.68-.57,1.58-1.13,2.37-.75a1.15,1.15,0,0,1,.36.29,1.82,1.82,0,0,1,.21,1.9,5.6,5.6,0,0,1-1.66,1.84,22.22,22.22,0,0,0-3.57,3.93,20.56,20.56,0,0,0-1.44,2.26q.51,3.87,1.28,7.7c.08.36.15.72.22,1.08a11.63,11.63,0,0,1,.9-1.8,10.57,10.57,0,0,1,3.08-3.27,3.2,3.2,0,0,1,1.33-.63A1.48,1.48,0,0,1,54,64.6a.22.22,0,0,1,0,.08,1.54,1.54,0,0,1,0,1.58,5.13,5.13,0,0,1-1.14,1.33,17.6,17.6,0,0,0-3.4,4.59,16.9,16.9,0,0,0-1.07,2.47c.33,1.31.69,2.62,1.06,3.92.65,2.2,1.63,4.69,3.82,5.4a3.62,3.62,0,0,0,.86.16,4.5,4.5,0,0,0,2.88-.9A6,6,0,0,0,58.94,81C60,78.91,59.92,76.49,59.86,74.17Z"/><polygon class="cls-3" points="94.01 58.01 94.01 65.41 105.03 65.41 94.01 58.01"/><polygon class="cls-3" points="11.04 58 0 65.41 11.04 65.41 11.04 58"/><path class="cls-4" d="M81.56,102.46H23.47v-1.14A10.26,10.26,0,0,0,13.22,91.07H12.08V11.39h1.14A10.26,10.26,0,0,0,23.47,1.14V0H81.56V1.14A10.26,10.26,0,0,0,91.81,11.39H93V91.07H91.81a10.26,10.26,0,0,0-10.25,10.25ZM25.7,100.18H79.34A12.53,12.53,0,0,1,90.67,88.85V13.61A12.53,12.53,0,0,1,79.34,2.28H25.7A12.55,12.55,0,0,1,14.36,13.61V88.85A12.55,12.55,0,0,1,25.7,100.18Z"/><path class="cls-4" d="M15.5,71.52V87.85A13.71,13.71,0,0,1,26.7,99H78.34A13.69,13.69,0,0,1,89.53,87.85V71.52Z"/><path class="cls-4" d="M77.52,4.51a14.75,14.75,0,0,0,7.65,9.8,15,15,0,0,0,3.37,1.23V78.36h-72V15.53a13.9,13.9,0,0,0,3.32-1.21,14.68,14.68,0,0,0,7.7-9.81Zm.82-1H26.7a13.71,13.71,0,0,1-7.33,9.92,13.15,13.15,0,0,1-3.87,1.28V79.36h74V14.71a13.44,13.44,0,0,1-3.91-1.3,13.7,13.7,0,0,1-7.29-9.9Z"/><path class="cls-3" d="M101.32,84.23a291.3,291.3,0,0,0-97.61,0L.38,65.65a311.94,311.94,0,0,1,104.27,0Z"/><path class="cls-1" d="M3.08,83l.27,1.59a285.84,285.84,0,0,1,98.33,0c.09-.53.18-1.06.28-1.59A296.22,296.22,0,0,0,3.08,83Z"/><path class="cls-1" d="M104.77,66.93c.09-.51.17-1,.26-1.52a305.17,305.17,0,0,0-105,0l.27,1.52A305.09,305.09,0,0,1,104.77,66.93Z"/><path class="cls-1" d="M44.34,92.83H42.8l1.41-6.65h-1l.13-.49a4.86,4.86,0,0,0,2.7-.83Z"/><path class="cls-1" d="M45.87,90.74a2.45,2.45,0,0,1,1.92-2.35,1.65,1.65,0,0,1-.91-1.45,2.28,2.28,0,0,1,2.38-2.09c1.34,0,2,.72,2,1.55a2.36,2.36,0,0,1-1.49,2,1.67,1.67,0,0,1,1.29,1.66,3,3,0,0,1-3,2.83A2.11,2.11,0,0,1,45.87,90.74Zm3.53-.41a2.06,2.06,0,0,0-.67-1.58,3,3,0,0,0-1.31,2.35c0,.58.25,1,.75,1C48.9,92.12,49.4,91.24,49.4,90.33Zm.52-4.22c0-.43-.18-.75-.52-.75a1.26,1.26,0,0,0-1.12,1.4A1.63,1.63,0,0,0,48.85,88,2.46,2.46,0,0,0,49.92,86.11Z"/><path class="cls-1" d="M54.86,88.85c0,.53-.64,1-1.43,1-1.07,0-1.5-1-1.5-1.87a2.91,2.91,0,0,1,2.76-3.12c1.65,0,2.05,1.16,2.05,2.51,0,3.2-1.36,5.53-3.61,5.53a1.13,1.13,0,0,1-1.26-1c0-.41.16-.79.92-.79a.51.51,0,0,0-.15.37.59.59,0,0,0,.56.59c.3,0,1.89,0,2.21-4.4,0-.2,0-.38,0-.55,0-1.32-.37-1.55-.94-1.55s-1.35,1.21-1.35,2.32c0,.44.11,1.09.6,1.09a.86.86,0,0,0,.89-.64A.9.9,0,0,1,54.86,88.85Z"/><path class="cls-1" d="M59,90a3.55,3.55,0,0,0-.34,1.37,1.23,1.23,0,0,0,.52,1c-.12.34-.53.41-1,.41-.64,0-1.09-.24-1.09-1.33,0-1.74,1.56-3.6,3.35-5.67a7.15,7.15,0,0,0-.9-.06,2.91,2.91,0,0,0-2.21.75,2.84,2.84,0,0,1-.08-.61c0-.7.4-1.07,1.45-1.07h3.49C61.68,85.66,59.32,89.32,59,90Z"/><polygon class="cls-2" points="33.79 85.81 34.54 88.12 36.97 88.12 35.01 89.55 35.76 91.85 33.79 90.43 31.83 91.85 32.58 89.55 30.62 88.12 33.04 88.12 33.79 85.81"/><polygon class="cls-2" points="70.43 85.81 71.18 88.12 73.61 88.12 71.64 89.55 72.39 91.85 70.43 90.43 68.47 91.85 69.22 89.55 67.25 88.12 69.68 88.12 70.43 85.81"/><path class="cls-1" d="M9.65,68.75a2.49,2.49,0,0,1,1.81.34,2,2,0,0,1,.83,1.47,2.26,2.26,0,0,1-.8,2.3,2.21,2.21,0,0,1,1.74,2A2.69,2.69,0,0,1,12.62,77a3.1,3.1,0,0,1-2.07,1.09,19.69,19.69,0,0,1-2.07.14L8.15,75c-.32-2-.65-3.93-1-5.9ZM10.21,74l-.91.12c0,.17,0,.33,0,.5.13.71.25,1.43.38,2.15.43,0,.77,0,1-.07a1.21,1.21,0,0,0,.87-.47,1.49,1.49,0,0,0,.19-1.08,1.33,1.33,0,0,0-.46-1A1.49,1.49,0,0,0,10.21,74Zm-.79-3.84-.56.08c.1.86.2,1.73.29,2.59l.74-.1a1.09,1.09,0,0,0,.83-.48,1.6,1.6,0,0,0,.16-1.08C10.78,70.36,10.29,70,9.42,70.14Z"/><path class="cls-1" d="M19.4,76.94l-.82-2.53c-.9.09-1.79.19-2.68.3-.1.86-.2,1.73-.29,2.59l-1.44,0c.19-1.11.39-2.23.59-3.35.27-2,.55-3.93.84-5.89l2-.41q1.05,2.78,2.07,5.55c.43,1.08.85,2.16,1.27,3.24Zm-2.61-7.4h-.14c-.2,1.24-.38,2.47-.57,3.71l2-.23C17.66,71.87,17.23,70.7,16.79,69.54Z"/><path class="cls-1" d="M24.74,76.5a2.86,2.86,0,0,1-2.46-1,5.07,5.07,0,0,1-1.2-3,6,6,0,0,1,.77-3.82A3.43,3.43,0,0,1,24.53,67a5.08,5.08,0,0,1,1.24,0,3.08,3.08,0,0,1,.83.23l.24.12-.51,1.91a3.62,3.62,0,0,0-1-.42,3,3,0,0,0-1.05-.15,1.77,1.77,0,0,0-1.41.9,3.35,3.35,0,0,0-.37,2.06,5.68,5.68,0,0,0,.77,2.59,1.63,1.63,0,0,0,1.54.82,3.43,3.43,0,0,0,1.12-.3c-.06-.69-.11-1.38-.17-2.07l-1.45.13c0-.45,0-.91,0-1.36l2.71-.23c0,.73.05,1.46.07,2.18l.27,2.31A8.69,8.69,0,0,1,24.74,76.5Z"/><path class="cls-1" d="M31.49,76a2.23,2.23,0,0,1-1.74-.61,2.6,2.6,0,0,1-.83-1.77l-.6-6.53,1.62-.46.24,5.87a2.55,2.55,0,0,0,.46,1.43,1.3,1.3,0,0,0,1.16.44,1.23,1.23,0,0,0,1.07-.58A3.37,3.37,0,0,0,33.1,72c-.15-1.74-.31-3.49-.46-5.23l1.58-.43c.07,2,.14,3.93.22,5.89a3.74,3.74,0,0,1-.74,2.62A3,3,0,0,1,31.49,76Z"/><path class="cls-1" d="M36.38,75.53l0-3.25-.45-6c1.44-.08,2.87-.14,4.31-.2,0,.48-.05,1-.07,1.44l-2.57.11c0,.79,0,1.58,0,2.37l2.27-.1c0,.48-.05.95-.07,1.42l-2.18.1c0,.18,0,.36,0,.53L37.82,74l2.71-.11c0,.47-.05.94-.07,1.42Q38.42,75.43,36.38,75.53Z"/><path class="cls-1" d="M40.69,67.64c0-.52.05-1,.07-1.55q2.73-.09,5.46-.15c0,.51-.07,1-.1,1.54l-2-.15c0,1.47,0,2.94.07,4.41.07,1.16.15,2.32.22,3.48l-1.56,0,0-3.25-.18-4.63Z"/><path class="cls-1" d="M46.25,67.48l.09-1.54q2.73-.06,5.46-.06l-.12,1.54-2-.19c0,1.47,0,2.94,0,4.42,0,1.16.11,2.32.16,3.48H48.28l.09-3.25c0-1.54-.07-3.09-.1-4.63Z"/><path class="cls-1" d="M52.71,75.12c0-1.09.09-2.17.14-3.26,0-2-.09-4-.13-6l4.31,0-.15,1.43-2.57,0c0,.79-.06,1.58-.08,2.37l2.27,0-.15,1.42-2.18,0c0,.18,0,.36,0,.54,0,.69,0,1.37.07,2.06l2.71,0c0,.47-.1.94-.14,1.41Z"/><path class="cls-1" d="M62.2,75.41c-.53,0-1.29-.09-2.28-.21L60.13,72c0-2,0-4,0-6l3.07.09a2.87,2.87,0,0,1,2.37,1.17,4.63,4.63,0,0,1,.74,3,6.39,6.39,0,0,1-1.22,3.82A3.38,3.38,0,0,1,62.2,75.41Zm.55-7.92c-.51,0-.86,0-1.07,0-.08,1.43-.16,2.86-.23,4.29,0,.72,0,1.45,0,2.17.63.07,1,.11,1.27.12a1.56,1.56,0,0,0,1.42-.81,4.93,4.93,0,0,0,.61-2.47,4.68,4.68,0,0,0-.41-2.44A1.78,1.78,0,0,0,62.75,67.49Z"/><path class="cls-1" d="M67.33,75.47c.09-1.08.19-2.17.29-3.25,0-2,.1-4,.14-6,1.44.07,2.87.14,4.31.23-.07.48-.14,1-.22,1.42l-2.57-.14c-.06.79-.12,1.57-.19,2.36l2.27.13-.21,1.41c-.72-.05-1.45-.09-2.18-.12,0,.18,0,.35,0,.53,0,.69,0,1.38,0,2.06l2.7.16c-.07.47-.13.94-.2,1.41C70.05,75.6,68.69,75.53,67.33,75.47Z"/><path class="cls-1" d="M77.66,66.86a2.26,2.26,0,0,1,1.7.87,2.92,2.92,0,0,1,.48,2,3.19,3.19,0,0,1-1,2.1,2.59,2.59,0,0,1-2.06.74l-.64-.05L76,76l-1.5-.11c.13-1.08.25-2.16.37-3.23.1-2,.19-4,.29-6Zm-.51,1.32-.56,0c-.11,1-.21,2.09-.32,3.14l.77.06A1,1,0,0,0,78,71a2.16,2.16,0,0,0,.41-1.23C78.44,68.77,78,68.25,77.15,68.18Z"/><path class="cls-1" d="M84.68,76.84c-.09-.88-.19-1.77-.28-2.65l-2.68-.26c-.28.82-.55,1.65-.83,2.48l-1.41-.26c.42-1.06.84-2.11,1.27-3.16.67-1.86,1.36-3.73,2-5.59l2.06,0c.3,1.95.6,3.9.88,5.85l.57,3.44Zm-1-7.78-.14,0q-.67,1.75-1.32,3.51l2,.19C84,71.51,83.85,70.29,83.66,69.06Z"/><path class="cls-1" d="M90,68l-.84,5.77c-.08,1.15-.17,2.31-.27,3.47l-1.55-.18c.16-1.07.33-2.14.5-3.22.17-1.9.33-3.79.5-5.69Z"/><path class="cls-1" d="M97.86,69.06l-1,5.71c-.11,1-.22,2.11-.32,3.17l-1.36.15q-1.2-3.44-2.49-6.84c-.12,1-.24,1.94-.37,2.91-.09,1.15-.19,2.31-.28,3.47l-1.39-.17c.18-1.08.36-2.15.53-3.22l.6-5.91,1.38.09q1.27,3.47,2.49,6.93l.75-6.28Z"/></g></g></svg>